<?xml version="1.0" encoding="UTF-8" standalone="no"?>
<svg
   viewBox="0 0 180625 262144"
   version="1.1"
   id="svg1"
   sodipodi:docname="email.svg"
   inkscape:export-filename="email.svg"
   inkscape:export-xdpi="4.5176473"
   inkscape:export-ydpi="4.5176473"
   width="180625"
   height="262144"
   xmlns:inkscape="http://www.inkscape.org/namespaces/inkscape"
   xmlns:sodipodi="http://sodipodi.sourceforge.net/DTD/sodipodi-0.dtd"
   xmlns="http://www.w3.org/2000/svg"
   xmlns:svg="http://www.w3.org/2000/svg">
  <defs
     id="defs1" />
  <sodipodi:namedview
     id="namedview1"
     pagecolor="#ffffff"
     bordercolor="#000000"
     borderopacity="0.25"
     inkscape:showpageshadow="2"
     inkscape:pageopacity="0.0"
     inkscape:pagecheckerboard="0"
     inkscape:deskcolor="#d1d1d1"
     showgrid="false" />
  <path
     d="m 317.62977,3.1377614 q 21.5,0 40.5,8.2499996 19,8.25 33.25,22.5 14.25,14.25 22.5,33.25 8.25,19 8.25,40.499999 v 209 q 0,21.5 -8.25,40.75 -8.25,19.25 -22.5,33.5 -14.25,14.25 -33.25,22.5 -19,8.25 -40.5,8.25 h -209.5 q -21.500004,0 -40.500004,-8.25 -19,-8.25 -33.25,-22.5 -14.25,-14.25 -22.5,-33.5 -8.2499997,-19.25 -8.2499997,-40.75 v -209 q 0,-21.499999 8.2499997,-40.499999 8.25,-19 22.5,-33.25 14.25,-14.25 33.25,-22.5 19,-8.2499996 40.500004,-8.2499996 z M 95.129766,267.13776 l 63.000004,-45 -63.000004,-45 z m 235.500004,19.5 -76.5,-55 -41,29.5 -41.5,-29.5 -76.500004,55 v 30 H 330.62977 Z m 0,-109.5 -63,45 63,45 z m 0,-69.5 H 95.129766 v 30.5 l 118.000004,84 117.5,-84 z"
     id="path1" />
</svg>
